<svg xmlns="http://www.w3.org/2000/svg" xmlns:xlink="http://www.w3.org/1999/xlink" width="1080" zoomAndPan="magnify" viewBox="0 0 810 809.999993" height="1080" preserveAspectRatio="xMidYMid meet" version="1.0"><defs><clipPath id="9fdee2a151"><path d="M 0 44.550781 L 809.640625 44.550781 L 809.640625 775.800781 L 0 775.800781 Z M 0 44.550781 " clip-rule="nonzero"/></clipPath><clipPath id="b01202106f"><path d="M 0 214 L 779 214 L 779 775.800781 L 0 775.800781 Z M 0 214 " clip-rule="nonzero"/></clipPath><clipPath id="ff6c897504"><path d="M 38 159 L 809.640625 159 L 809.640625 761 L 38 761 Z M 38 159 " clip-rule="nonzero"/></clipPath><clipPath id="846ebe8764"><path d="M 34 211 L 780 211 L 780 775.800781 L 34 775.800781 Z M 34 211 " clip-rule="nonzero"/></clipPath></defs><g clip-path="url(#9fdee2a151)"><path fill="#f5f5f5" d="M 306.9375 97.5 C 304.417969 94.980469 304.417969 90.894531 306.9375 88.375 L 310.59375 84.722656 C 313.113281 82.203125 317.195312 82.203125 319.714844 84.722656 L 347.8125 112.816406 C 350.332031 115.335938 350.332031 119.421875 347.8125 121.941406 L 344.15625 125.59375 C 341.636719 128.113281 337.554688 128.113281 335.035156 125.59375 Z M 471.6875 123.738281 C 474.207031 126.257812 478.289062 126.257812 480.808594 123.738281 L 508.90625 95.640625 C 511.425781 93.121094 511.425781 89.039062 508.90625 86.519531 L 505.25 82.863281 C 502.730469 80.347656 498.648438 80.347656 496.128906 82.863281 L 468.03125 110.960938 C 465.511719 113.480469 465.511719 117.5625 468.03125 120.082031 Z M 275.074219 195.125 L 314.808594 195.125 C 318.371094 195.125 321.257812 192.234375 321.257812 188.675781 L 321.257812 183.507812 C 321.257812 179.945312 318.371094 177.054688 314.808594 177.054688 L 275.074219 177.054688 C 271.511719 177.054688 268.625 179.945312 268.625 183.507812 L 268.625 188.675781 C 268.625 192.234375 271.511719 195.125 275.074219 195.125 Z M 404.953125 97.183594 L 410.121094 97.183594 C 413.683594 97.183594 416.574219 94.296875 416.574219 90.734375 L 416.574219 51 C 416.574219 47.4375 413.683594 44.550781 410.121094 44.550781 L 404.953125 44.550781 C 401.390625 44.550781 398.503906 47.4375 398.503906 51 L 398.503906 90.734375 C 398.503906 94.296875 401.390625 97.183594 404.953125 97.183594 Z M 496.441406 180.878906 L 496.441406 186.046875 C 496.441406 189.609375 499.332031 192.496094 502.894531 192.496094 L 542.628906 192.496094 C 546.191406 192.496094 549.078125 189.609375 549.078125 186.046875 L 549.078125 180.878906 C 549.078125 177.316406 546.191406 174.429688 542.628906 174.429688 L 502.894531 174.429688 C 499.332031 174.429688 496.441406 177.316406 496.441406 180.878906 Z M 809.601562 593.15625 C 809.601562 606.53125 809.601562 629.980469 809.601562 643.359375 C 809.601562 648.941406 805.082031 653.46875 799.5 653.46875 C 770.78125 653.46875 688.949219 653.46875 660.238281 653.46875 C 654.652344 653.46875 650.128906 648.941406 650.128906 643.359375 L 650.128906 618.699219 L 592.128906 618.699219 L 595.378906 732.515625 L 552.222656 730.703125 L 548.800781 618.699219 L 536.390625 618.699219 L 529.378906 730.496094 L 515.214844 730.566406 C 515.203125 730.609375 515.1875 730.65625 515.175781 730.699219 L 512.472656 730.699219 C 511.773438 736.34375 510.917969 744.554688 510.953125 750.679688 C 513.058594 757.164062 513.351562 764.585938 513.230469 769.667969 L 463.796875 769.667969 L 459.679688 763.234375 C 469.152344 758.632812 481.363281 751.214844 486.050781 745.378906 C 487.519531 741.6875 488.492188 737.269531 489.015625 730.699219 L 488.304688 730.699219 L 492.898438 622.863281 L 493.050781 618.695312 L 276.984375 618.695312 L 275.59375 746.460938 C 278.429688 748.015625 281.210938 749.34375 283.589844 750.496094 C 291.429688 754.28125 290.066406 760.625 290.066406 760.625 L 275.4375 760.625 L 275.277344 775.191406 L 269.058594 775.191406 L 268.886719 760.625 L 232.464844 760.625 C 229.484375 748.726562 233.40625 744.488281 232.128906 731.589844 L 207.722656 731.589844 L 201.136719 709.957031 L 200.886719 709.957031 C 200.4375 709.957031 200.070312 709.589844 200.070312 709.144531 C 200.070312 708.773438 200.320312 708.476562 200.65625 708.375 L 190.367188 674.597656 L 190.273438 675.875 L 207.488281 753.257812 C 207.773438 754.539062 207.421875 755.882812 206.550781 756.863281 C 205.679688 757.84375 204.386719 758.347656 203.078125 758.210938 C 199.703125 757.871094 196.925781 755.402344 196.1875 752.085938 C 194.480469 744.414062 191.191406 729.625 187.53125 713.171875 L 186.179688 731.589844 L 155.445312 731.589844 C 156.046875 732.625 157.046875 734.1875 158.726562 736.585938 C 163.582031 743.519531 171.226562 747.429688 177.574219 750.496094 C 185.414062 754.285156 184.050781 760.625 184.050781 760.625 L 126.449219 760.625 C 126.152344 759.4375 125.925781 758.320312 125.738281 757.242188 C 124.894531 757.957031 123.808594 758.328125 122.695312 758.210938 C 120.171875 757.957031 117.984375 756.511719 116.730469 754.417969 L 117.226562 708.875 C 120.40625 723.175781 123.414062 736.675781 125.492188 746.023438 C 126.054688 741.636719 127.21875 737.324219 128.09375 731.585938 L 127.914062 731.585938 L 130.96875 709.933594 C 131.007812 709.9375 131.042969 709.957031 131.082031 709.957031 C 130.632812 709.957031 130.265625 709.589844 130.265625 709.140625 C 130.265625 708.691406 130.632812 708.324219 131.082031 708.324219 L 131.195312 708.324219 L 133.34375 693.074219 L 117.398438 693.074219 L 117.453125 688.03125 L 116.503906 775.1875 L 110.28125 775.1875 L 109.476562 706.578125 L 109.6875 724.597656 C 107.75 715.878906 105.597656 706.207031 103.453125 696.570312 C 98.410156 719.230469 93.3125 742.160156 91.03125 752.414062 C 90.292969 755.726562 87.515625 758.199219 84.140625 758.539062 C 82.832031 758.671875 81.542969 758.167969 80.667969 757.1875 C 79.796875 756.207031 79.449219 754.863281 79.734375 753.582031 L 93.273438 692.71875 L 21.113281 692.71875 C 15.792969 716.640625 10.210938 741.722656 7.796875 752.582031 C 7.058594 755.898438 4.28125 758.367188 0.90625 758.707031 C -0.398438 758.839844 -1.691406 758.335938 -2.566406 757.355469 C -3.4375 756.375 -3.785156 755.035156 -3.5 753.753906 L 21.949219 639.332031 L 22.417969 639.28125 L 12.492188 639.28125 L 9.09375 624.277344 C 7.855469 619.085938 -1.832031 578.550781 -9.242188 547.527344 C -11.320312 538.816406 -9.296875 529.625 -3.746094 522.589844 C 1.804688 515.554688 10.273438 511.449219 19.234375 511.449219 L 20.230469 511.449219 L 20.230469 512.039062 C 21.988281 511.710938 23.777344 511.496094 25.601562 511.496094 C 29.816406 511.496094 34.148438 511.496094 38.46875 511.496094 C 38.199219 507.835938 38.039062 504.113281 38.03125 500.332031 C 38.023438 493.765625 40.433594 488.652344 44.25 485.21875 C 38.667969 480.507812 35.34375 473.449219 35.527344 465.867188 C 35.796875 455.246094 40.023438 443.03125 56.332031 437.882812 C 56.332031 437.882812 57.023438 433.113281 59.265625 427.339844 C 60.507812 421.386719 63.871094 415.859375 69.203125 412.03125 C 70.824219 410.867188 72.546875 409.945312 74.316406 409.214844 C 76.402344 408.253906 78.714844 407.59375 81.285156 407.332031 C 91.953125 406.25 99.0625 409.507812 103.980469 416.121094 C 107.871094 421.347656 109.785156 429.285156 110.792969 435.871094 C 111.523438 440.664062 112.574219 445.398438 113.808594 450.085938 C 113.953125 450.628906 114.066406 451.160156 114.191406 451.699219 C 120.832031 455.667969 125.292969 462.902344 125.292969 471.199219 C 125.292969 478.867188 121.492188 485.636719 115.679688 489.75 L 137.84375 508.496094 L 139.390625 496.277344 C 139.515625 495.285156 140.421875 494.476562 141.414062 494.476562 L 191.59375 494.417969 L 229.207031 494.375 C 230.203125 494.375 230.90625 495.179688 230.78125 496.175781 L 228.238281 516.289062 C 228.21875 516.285156 228.203125 516.28125 228.1875 516.277344 C 229.886719 516.796875 231.441406 517.566406 232.285156 518.457031 C 233.089844 519.316406 232.164062 523.140625 231.273438 523.824219 C 231.355469 523.925781 231.398438 524.054688 231.339844 524.179688 C 231.332031 524.191406 231.3125 524.191406 231.304688 524.203125 C 231.84375 525 231.171875 528.167969 230.03125 529.039062 C 230.167969 529.105469 230.304688 529.167969 230.441406 529.234375 C 230.597656 529.3125 230.65625 529.496094 230.597656 529.652344 C 231.101562 530.597656 230.21875 533.832031 228.9375 534.316406 C 228.878906 534.335938 228.789062 534.34375 228.703125 534.355469 C 228.820312 534.453125 228.875 534.609375 228.804688 534.753906 C 228.78125 534.800781 228.726562 534.804688 228.6875 534.835938 C 229.035156 536.121094 228.554688 538.328125 226.832031 539.089844 C 226.425781 539.269531 225.894531 539.3125 225.324219 539.296875 L 223.007812 557.632812 L 246.015625 557.632812 L 246.015625 353.511719 C 212.90625 353.511719 128.019531 353.511719 108.847656 353.511719 C 106.695312 353.511719 104.949219 351.765625 104.949219 349.617188 L 104.949219 270.871094 L 99.429688 270.871094 C 98.621094 270.871094 97.835938 270.550781 97.265625 269.972656 C 96.6875 269.394531 96.367188 268.613281 96.367188 267.804688 C 96.367188 262.453125 96.367188 251.484375 96.367188 246.132812 C 96.367188 245.320312 96.6875 244.539062 97.265625 243.964844 C 97.835938 243.394531 98.621094 243.0625 99.429688 243.0625 C 104.4375 243.0625 114.296875 243.0625 119.300781 243.0625 C 120.113281 243.0625 120.890625 243.394531 121.46875 243.964844 C 122.046875 244.539062 122.367188 245.320312 122.367188 246.132812 C 122.367188 248.703125 122.367188 252.566406 122.367188 256.484375 L 255.414062 256.484375 C 257.558594 256.484375 259.304688 258.230469 259.304688 260.375 L 259.304688 267.144531 L 379.117188 267.144531 L 379.117188 264.234375 C 379.117188 262.578125 380.460938 261.230469 382.117188 261.230469 L 384.824219 261.230469 C 383.125 245.519531 375.976562 230.84375 364.695312 219.535156 C 352.84375 207.660156 345.519531 191.273438 345.519531 173.171875 C 345.519531 158.714844 350.140625 145.375 357.992188 134.550781 C 369.8125 118.257812 388.960938 107.660156 410.71875 107.507812 C 447.195312 107.257812 476.847656 136.75 476.847656 173.171875 C 476.847656 191.199219 469.582031 207.527344 457.816406 219.390625 C 446.519531 230.78125 439.269531 245.46875 437.546875 261.230469 L 439.230469 261.230469 C 440.890625 261.230469 442.234375 262.578125 442.234375 264.234375 L 442.234375 267.144531 L 630.710938 267.144531 L 630.710938 214.183594 L 760.542969 214.183594 C 760.542969 211.207031 760.542969 208.414062 760.542969 206.425781 C 760.542969 205.640625 760.851562 204.886719 761.410156 204.332031 C 761.960938 203.78125 762.71875 203.460938 763.5 203.460938 C 768.335938 203.460938 777.851562 203.460938 782.683594 203.460938 C 783.46875 203.460938 784.21875 203.78125 784.777344 204.332031 C 785.335938 204.886719 785.644531 205.640625 785.644531 206.425781 C 785.644531 211.59375 785.644531 222.179688 785.644531 227.347656 C 785.644531 228.128906 785.335938 228.882812 784.777344 229.441406 C 784.21875 229.996094 783.46875 230.308594 782.683594 230.308594 L 778.113281 230.308594 L 778.113281 318.136719 L 755.160156 318.136719 L 755.160156 583.042969 C 773.355469 583.042969 789.589844 583.042969 799.5 583.042969 C 805.082031 583.042969 809.601562 587.566406 809.601562 593.15625 Z M 760.667969 228.148438 Z M 762.429688 230.101562 Z M 762.90625 231.324219 C 762.894531 231.285156 762.878906 231.246094 762.871094 231.207031 C 762.878906 231.246094 762.898438 231.285156 762.90625 231.324219 Z M 763.5 230.308594 C 763.316406 230.308594 763.132812 230.289062 762.953125 230.253906 C 763.132812 230.289062 763.316406 230.308594 763.5 230.308594 Z M 759.941406 227.757812 C 760.191406 227.867188 760.433594 227.996094 760.65625 228.144531 C 760.433594 227.996094 760.191406 227.867188 759.941406 227.757812 Z M 757.769531 227.28125 C 758.09375 227.28125 758.410156 227.320312 758.714844 227.375 C 758.410156 227.320312 758.09375 227.28125 757.769531 227.28125 Z M 759.027344 227.445312 C 759.226562 227.496094 759.421875 227.558594 759.613281 227.628906 C 759.421875 227.558594 759.226562 227.496094 759.027344 227.445312 Z M 441.664062 283.863281 C 441.660156 283.851562 441.648438 283.84375 441.644531 283.839844 C 441.648438 283.847656 441.65625 283.855469 441.664062 283.863281 Z M 442.097656 284.757812 C 442.082031 284.707031 442.066406 284.65625 442.050781 284.605469 C 442.066406 284.65625 442.082031 284.710938 442.097656 284.757812 Z M 441.664062 273.210938 C 441.660156 273.21875 441.648438 273.226562 441.644531 273.234375 C 441.648438 273.226562 441.65625 273.21875 441.664062 273.210938 Z M 442.097656 272.3125 C 442.082031 272.363281 442.066406 272.417969 442.050781 272.46875 C 442.066406 272.417969 442.082031 272.363281 442.097656 272.3125 Z M 439.742188 282.660156 C 439.578125 282.628906 439.40625 282.609375 439.230469 282.609375 C 439.40625 282.609375 439.574219 282.632812 439.742188 282.660156 Z M 439.230469 274.464844 C 439.40625 274.464844 439.578125 274.445312 439.742188 274.414062 C 439.574219 274.441406 439.40625 274.464844 439.230469 274.464844 Z M 107.921875 574.238281 C 95.867188 574.328125 91.976562 574.464844 90.742188 574.542969 C 91.980469 574.460938 95.867188 574.328125 107.921875 574.238281 L 108.042969 584.433594 L 108.417969 616.484375 Z M 125.90625 556.867188 L 132.230469 556.859375 L 133.988281 542.972656 L 133.476562 543.042969 L 131.726562 556.859375 L 125.90625 556.867188 C 125.457031 556.375 125.085938 555.835938 124.757812 555.273438 C 125.085938 555.835938 125.457031 556.378906 125.90625 556.867188 Z M 89.996094 573.035156 C 89.988281 573.039062 89.984375 573.039062 89.980469 573.039062 C 89.984375 573.039062 89.988281 573.035156 89.996094 573.035156 Z M 89.511719 573.179688 Z M 89.640625 573.128906 C 89.640625 573.128906 89.640625 573.128906 89.636719 573.128906 C 89.640625 573.128906 89.640625 573.128906 89.640625 573.128906 Z M 89.789062 573.082031 C 89.792969 573.082031 89.796875 573.082031 89.800781 573.082031 C 89.796875 573.082031 89.792969 573.082031 89.789062 573.082031 Z M 90.226562 572.996094 C 90.21875 572.996094 90.207031 573 90.195312 573 C 90.207031 573 90.214844 572.996094 90.226562 572.996094 Z M 107.902344 572.609375 L 107.855469 568.734375 L 105.191406 568.734375 C 106.164062 569.449219 107.0625 570.21875 107.882812 571.046875 Z M 101.761719 572.65625 C 101.757812 572.65625 101.75 572.65625 101.742188 572.65625 C 101.75 572.65625 101.757812 572.65625 101.761719 572.65625 Z M 98.078125 572.691406 C 98.117188 572.691406 98.160156 572.691406 98.203125 572.691406 C 98.160156 572.691406 98.117188 572.691406 98.078125 572.691406 Z M 96.945312 572.707031 C 97.050781 572.707031 97.15625 572.703125 97.261719 572.703125 C 97.15625 572.707031 97.050781 572.707031 96.945312 572.707031 Z M 96.054688 572.722656 C 96.128906 572.71875 96.203125 572.71875 96.277344 572.71875 C 96.203125 572.71875 96.128906 572.71875 96.054688 572.722656 Z M 95.390625 572.734375 C 95.328125 572.734375 95.265625 572.734375 95.203125 572.738281 C 95.265625 572.734375 95.328125 572.734375 95.390625 572.734375 Z M 94.402344 572.757812 C 94.46875 572.753906 94.53125 572.753906 94.597656 572.75 C 94.53125 572.753906 94.46875 572.753906 94.402344 572.757812 Z M 93.699219 572.773438 C 93.757812 572.773438 93.8125 572.769531 93.875 572.769531 C 93.8125 572.769531 93.757812 572.773438 93.699219 572.773438 Z M 93.074219 572.792969 C 93.117188 572.792969 93.15625 572.789062 93.199219 572.789062 C 93.15625 572.789062 93.117188 572.792969 93.074219 572.792969 Z M 92.5 572.816406 C 92.535156 572.8125 92.570312 572.8125 92.605469 572.8125 C 92.570312 572.8125 92.535156 572.8125 92.5 572.816406 Z M 91.96875 572.839844 C 92.003906 572.839844 92.042969 572.835938 92.078125 572.835938 C 92.042969 572.835938 92.003906 572.839844 91.96875 572.839844 Z M 91.523438 572.867188 C 91.550781 572.867188 91.578125 572.863281 91.605469 572.863281 C 91.574219 572.863281 91.550781 572.867188 91.523438 572.867188 Z M 91.121094 572.894531 C 91.140625 572.894531 91.164062 572.890625 91.183594 572.890625 C 91.164062 572.890625 91.140625 572.894531 91.121094 572.894531 Z M 90.765625 572.929688 C 90.78125 572.925781 90.800781 572.925781 90.816406 572.921875 C 90.800781 572.925781 90.78125 572.925781 90.765625 572.929688 Z M 90.457031 572.960938 C 90.472656 572.960938 90.488281 572.957031 90.5 572.957031 C 90.484375 572.957031 90.472656 572.960938 90.457031 572.960938 Z M 88.375 601.988281 C 88.386719 601.996094 88.398438 602 88.414062 602.003906 C 88.410156 602.003906 88.410156 602.003906 88.410156 602 C 88.398438 602 88.386719 601.996094 88.375 601.988281 Z M 92.09375 603.550781 C 92.089844 603.550781 92.089844 603.550781 92.089844 603.550781 C 92.011719 603.511719 91.933594 603.480469 91.855469 603.445312 C 91.9375 603.480469 92.015625 603.511719 92.09375 603.550781 Z M 98.71875 607.382812 C 98.683594 607.359375 98.652344 607.335938 98.621094 607.316406 C 98.621094 607.316406 98.617188 607.316406 98.617188 607.316406 C 98.652344 607.335938 98.6875 607.359375 98.71875 607.382812 Z M 101.769531 609.703125 C 101.769531 609.703125 101.765625 609.703125 101.765625 609.703125 C 101.765625 609.703125 101.765625 609.703125 101.765625 609.699219 C 101.765625 609.699219 101.761719 609.699219 101.761719 609.699219 C 101.765625 609.699219 101.765625 609.703125 101.769531 609.703125 Z M 105.289062 612.941406 C 105.277344 612.933594 105.265625 612.917969 105.257812 612.90625 C 105.265625 612.917969 105.277344 612.933594 105.289062 612.941406 Z M 90.628906 574.550781 C 90.589844 574.550781 90.546875 574.554688 90.515625 574.558594 C 90.546875 574.554688 90.589844 574.554688 90.628906 574.550781 Z M 218.609375 525.523438 C 218.617188 525.472656 218.65625 525.445312 218.6875 525.40625 C 218.65625 525.445312 218.617188 525.472656 218.609375 525.523438 Z M 218.394531 536.191406 C 218.609375 536.394531 218.832031 536.589844 219.070312 536.777344 C 218.832031 536.589844 218.609375 536.394531 218.394531 536.191406 Z M 218.050781 535.867188 C 217.738281 535.546875 217.453125 535.214844 217.21875 534.867188 C 217.453125 535.214844 217.738281 535.546875 218.050781 535.867188 Z M 221.238281 538.140625 C 221.101562 538.070312 220.964844 538.007812 220.832031 537.933594 C 220.964844 538.007812 221.101562 538.070312 221.238281 538.140625 Z M 220.183594 537.550781 C 219.972656 537.421875 219.765625 537.285156 219.566406 537.144531 C 219.769531 537.285156 219.972656 537.421875 220.183594 537.550781 Z M 226.582031 515.878906 C 226.390625 515.839844 226.203125 515.8125 226.015625 515.78125 C 226.203125 515.8125 226.390625 515.84375 226.582031 515.878906 Z M 224.261719 515.625 C 224.558594 515.628906 224.863281 515.644531 225.175781 515.675781 C 224.863281 515.644531 224.558594 515.628906 224.261719 515.625 Z M 220.492188 517.90625 C 220.558594 517.253906 220.867188 516.609375 221.648438 516.140625 C 221.910156 515.988281 222.238281 515.878906 222.585938 515.792969 C 222.238281 515.878906 221.910156 515.984375 221.648438 516.140625 C 220.867188 516.609375 220.558594 517.253906 220.492188 517.90625 Z M 222.789062 515.742188 C 223.121094 515.675781 223.484375 515.640625 223.867188 515.625 C 223.484375 515.640625 223.125 515.675781 222.789062 515.742188 Z M 217.015625 522.628906 C 217.054688 522.261719 217.175781 521.925781 217.339844 521.625 C 217.875 520.65625 218.890625 520.105469 219.953125 520.109375 C 220 519.941406 220.164062 519.828125 220.335938 519.867188 C 220.347656 519.867188 220.625 519.925781 221.09375 520.039062 C 220.628906 519.925781 220.351562 519.867188 220.335938 519.867188 C 220.164062 519.828125 220 519.941406 219.953125 520.109375 C 218.890625 520.105469 217.875 520.65625 217.339844 521.625 C 217.175781 521.925781 217.054688 522.261719 217.015625 522.628906 Z M 216.839844 528.4375 C 216.714844 526.621094 217.886719 525.964844 218.648438 525.730469 C 217.886719 525.964844 216.714844 526.621094 216.839844 528.4375 Z M 216.589844 533.375 C 216.410156 532.066406 217.398438 531.265625 218.078125 530.878906 C 218.105469 530.832031 218.128906 530.789062 218.175781 530.761719 C 218.128906 530.789062 218.109375 530.832031 218.078125 530.878906 C 217.398438 531.265625 216.410156 532.066406 216.589844 533.375 Z M 132.839844 539.199219 L 110.742188 523.054688 L 109.914062 535.152344 C 109.882812 535.582031 109.527344 535.914062 109.101562 535.914062 C 109.085938 535.914062 109.066406 535.910156 109.046875 535.910156 C 109 535.90625 108.957031 535.886719 108.914062 535.871094 C 108.796875 536.476562 108.6875 537.078125 108.558594 537.679688 L 133.671875 541.5 L 133.867188 539.953125 C 133.839844 539.933594 133.808594 539.917969 133.777344 539.894531 Z M 47.660156 482.792969 C 47.683594 482.777344 47.707031 482.769531 47.730469 482.753906 C 47.707031 482.769531 47.683594 482.777344 47.660156 482.792969 Z M 49.375 481.960938 C 49.507812 481.902344 49.644531 481.839844 49.78125 481.789062 C 49.644531 481.839844 49.507812 481.902344 49.375 481.960938 Z M 17.730469 512.625 C 17.683594 512.636719 17.636719 512.65625 17.585938 512.667969 C 17.636719 512.65625 17.683594 512.640625 17.730469 512.625 Z M 10.972656 515.46875 C 10.789062 515.570312 10.605469 515.664062 10.425781 515.773438 C 10.601562 515.664062 10.789062 515.574219 10.972656 515.46875 Z M 7.875 517.519531 C 8.257812 517.226562 8.65625 516.953125 9.054688 516.679688 C 8.652344 516.953125 8.261719 517.226562 7.875 517.519531 Z M 5.414062 519.625 C 5.863281 519.195312 6.320312 518.78125 6.796875 518.382812 C 6.320312 518.78125 5.863281 519.195312 5.414062 519.625 Z M 2.621094 522.640625 C 3.25 521.84375 3.925781 521.101562 4.625 520.378906 C 3.925781 521.097656 3.25 521.84375 2.621094 522.640625 Z M 2.164062 568.660156 C 2.386719 569.589844 2.609375 570.519531 2.832031 571.453125 C 2.609375 570.519531 2.386719 569.589844 2.164062 568.660156 Z M -2.871094 547.578125 C -1.929688 551.53125 -0.945312 555.640625 0.0507812 559.808594 C -0.945312 555.640625 -1.929688 551.53125 -2.871094 547.578125 Z M 0.28125 560.777344 C 0.714844 562.597656 1.15625 564.433594 1.59375 566.265625 C 1.15625 564.429688 0.714844 562.597656 0.28125 560.777344 Z M 109.074219 672.214844 L 109.0625 671.355469 C 108.371094 674.472656 107.648438 677.710938 106.914062 681.023438 C 107.613281 677.863281 108.308594 674.75 108.972656 671.765625 C 109.007812 671.914062 109.039062 672.066406 109.074219 672.214844 Z M 105.964844 685.28125 C 105.964844 685.285156 105.964844 685.289062 105.964844 685.289062 C 105.964844 685.289062 105.964844 685.285156 105.964844 685.28125 Z M 134.578125 684.335938 L 141.785156 633.242188 C 141.820312 633.246094 141.855469 633.28125 141.890625 633.28125 C 141.703125 633.28125 141.515625 633.214844 141.359375 633.085938 C 141.171875 632.925781 141.085938 632.699219 141.085938 632.46875 L 118.058594 632.59375 L 118.089844 629.664062 L 118.667969 576.675781 L 118.671875 576.472656 L 118.671875 576.308594 L 117.496094 684.335938 Z M 141.273438 631.933594 C 141.207031 632.011719 141.160156 632.101562 141.128906 632.195312 C 141.164062 632.101562 141.207031 632.011719 141.273438 631.933594 Z M 254.636719 709.851562 C 254.652344 709.84375 254.664062 709.835938 254.675781 709.824219 C 254.664062 709.835938 254.652344 709.84375 254.636719 709.851562 Z M 268.671875 742.089844 L 266.632812 568.734375 L 267.21875 618.699219 L 246.011719 618.699219 L 246.011719 568.734375 L 118.753906 568.734375 L 118.699219 573.523438 L 173.640625 577.128906 C 174.15625 577.160156 174.65625 577.234375 175.164062 577.292969 L 206.605469 579.394531 C 219.949219 580.261719 227.914062 589.8125 230.855469 602.859375 L 254.691406 708.46875 C 254.917969 708.613281 255.078125 708.855469 255.078125 709.144531 C 255.078125 709.300781 255.019531 709.441406 254.9375 709.566406 L 259.910156 731.589844 L 259.402344 731.589844 C 260.089844 732.96875 261.152344 734.84375 262.605469 736.585938 C 264.316406 738.632812 266.417969 740.441406 268.671875 742.089844 Z M 733.324219 618.695312 L 745.90625 632.441406 Z M 599.007812 773.027344 C 599.242188 774.464844 598.101562 775.769531 596.644531 775.769531 L 554.777344 775.769531 C 553.457031 775.769531 552.386719 774.6875 552.394531 773.367188 C 552.414062 768.703125 552.488281 764.707031 552.59375 761.152344 C 552.597656 761.007812 552.601562 760.863281 552.605469 760.722656 C 552.621094 760.21875 552.636719 759.722656 552.652344 759.242188 C 552.660156 759.003906 552.667969 758.769531 552.675781 758.535156 C 552.691406 758.128906 552.707031 757.722656 552.71875 757.328125 C 552.734375 756.957031 552.75 756.597656 552.761719 756.234375 C 552.773438 755.992188 552.785156 755.742188 552.792969 755.507812 C 552.820312 754.867188 552.847656 754.242188 552.875 753.628906 C 553.246094 745.46875 553.695312 739.613281 553.695312 731.957031 C 553.695312 731.542969 553.714844 731.164062 553.722656 730.761719 L 575.679688 731.6875 C 575.585938 736.007812 575.933594 740.3125 577.507812 744.582031 C 577.621094 744.890625 577.722656 745.195312 577.847656 745.503906 C 577.851562 745.515625 577.859375 745.523438 577.863281 745.535156 C 578.167969 746.273438 578.515625 746.980469 578.898438 747.664062 C 579.035156 747.90625 579.195312 748.132812 579.339844 748.375 C 579.605469 748.808594 579.871094 749.246094 580.164062 749.664062 C 580.355469 749.933594 580.5625 750.1875 580.761719 750.453125 C 581.035156 750.8125 581.308594 751.175781 581.601562 751.527344 C 581.832031 751.796875 582.070312 752.0625 582.308594 752.328125 C 582.597656 752.648438 582.886719 752.96875 583.183594 753.277344 C 583.445312 753.550781 583.707031 753.816406 583.976562 754.082031 C 584.269531 754.371094 584.5625 754.660156 584.863281 754.945312 C 585.15625 755.222656 585.453125 755.503906 585.753906 755.777344 C 586.035156 756.035156 586.316406 756.292969 586.597656 756.546875 C 587.816406 757.640625 589.042969 758.710938 590.242188 759.789062 C 590.382812 759.917969 590.53125 760.046875 590.671875 760.179688 C 590.671875 760.179688 590.667969 760.179688 590.667969 760.175781 C 594.640625 763.792969 598.121094 767.605469 599.007812 773.027344 Z M 555.085938 754.011719 C 554.957031 754.019531 554.828125 754.011719 554.703125 754.011719 C 554.828125 754.015625 554.957031 754.019531 555.085938 754.011719 Z M 560.058594 751.339844 C 560.457031 750.917969 560.855469 750.515625 561.253906 750.125 C 560.855469 750.515625 560.457031 750.917969 560.058594 751.339844 C 559.746094 751.671875 559.4375 751.960938 559.132812 752.222656 C 559.441406 751.960938 559.75 751.671875 560.058594 751.339844 Z M 555.90625 753.914062 C 555.757812 753.945312 555.605469 753.96875 555.457031 753.988281 C 555.605469 753.96875 555.757812 753.941406 555.90625 753.914062 Z M 557.042969 753.570312 C 556.773438 753.6875 556.511719 753.769531 556.25 753.839844 C 556.511719 753.773438 556.773438 753.6875 557.042969 753.570312 Z M 557.914062 753.117188 C 557.691406 753.25 557.46875 753.367188 557.25 753.46875 C 557.46875 753.367188 557.691406 753.25 557.914062 753.117188 Z M 558.851562 752.453125 C 558.636719 752.625 558.425781 752.777344 558.21875 752.917969 C 558.425781 752.777344 558.636719 752.625 558.851562 752.453125 Z M 576.394531 744.269531 C 574.113281 743.738281 571.832031 743.90625 569.574219 744.660156 C 569.996094 744.519531 570.417969 744.394531 570.839844 744.292969 C 571.582031 744.121094 572.324219 744.011719 573.070312 743.976562 C 574.175781 743.917969 575.285156 744.011719 576.394531 744.269531 Z M 562.472656 748.996094 C 562.191406 749.246094 561.910156 749.503906 561.625 749.769531 C 561.90625 749.503906 562.191406 749.246094 562.472656 748.996094 Z M 563.75 747.929688 C 563.464844 748.15625 563.179688 748.382812 562.898438 748.625 C 563.183594 748.382812 563.46875 748.15625 563.75 747.929688 Z M 566.609375 745.996094 C 565.777344 746.46875 564.953125 747.011719 564.136719 747.632812 C 564.953125 747.011719 565.777344 746.464844 566.609375 745.996094 Z M 566.988281 745.792969 C 567.28125 745.636719 567.578125 745.484375 567.875 745.347656 C 567.578125 745.484375 567.28125 745.636719 566.988281 745.792969 Z M 569.195312 744.800781 C 568.894531 744.90625 568.597656 745.023438 568.300781 745.152344 C 568.597656 745.023438 568.894531 744.90625 569.195312 744.800781 Z M 459.679688 763.234375 C 458.238281 763.933594 456.855469 764.570312 455.578125 765.125 C 449.957031 767.5625 448.535156 770.371094 448.175781 773.074219 C 447.988281 774.503906 449.105469 775.769531 450.546875 775.769531 L 510.671875 775.769531 C 511.917969 775.769531 512.957031 774.808594 513.046875 773.566406 C 513.121094 772.550781 513.195312 771.210938 513.230469 769.667969 L 463.796875 769.667969 Z M 459.679688 763.234375 " fill-opacity="1" fill-rule="nonzero"/></g><g clip-path="url(#b01202106f)"><path fill="#e0e0e0" d="M 600.429688 553.03125 L 533.757812 553.03125 L 533.757812 445.808594 L 600.429688 445.808594 Z M 368.25 357.050781 L 301.578125 357.050781 L 301.578125 552.023438 L 368.25 552.023438 Z M 476.847656 420.128906 L 410.175781 420.128906 L 410.175781 552.023438 L 476.847656 552.023438 Z M 709.027344 366.3125 L 642.355469 366.3125 L 642.355469 553.03125 L 709.027344 553.03125 Z M 442.234375 292.839844 L 442.234375 285.613281 C 442.234375 283.953125 440.890625 282.609375 439.230469 282.609375 L 382.117188 282.609375 C 380.460938 282.609375 379.117188 283.953125 379.117188 285.613281 L 379.117188 292.839844 C 379.117188 294.5 380.460938 295.84375 382.117188 295.84375 L 439.230469 295.84375 C 440.890625 295.84375 442.234375 294.5 442.234375 292.839844 Z M 442.234375 271.460938 L 442.234375 264.234375 C 442.234375 262.574219 440.890625 261.230469 439.230469 261.230469 L 382.117188 261.230469 C 380.460938 261.230469 379.117188 262.574219 379.117188 264.234375 L 379.117188 271.460938 C 379.117188 273.121094 380.460938 274.464844 382.117188 274.464844 L 439.230469 274.464844 C 440.890625 274.464844 442.234375 273.121094 442.234375 271.460938 Z M 255.414062 256.480469 L 122.367188 256.480469 C 122.367188 260.71875 122.367188 265.019531 122.367188 267.800781 C 122.367188 268.613281 122.046875 269.394531 121.46875 269.96875 C 120.894531 270.546875 120.113281 270.871094 119.304688 270.871094 L 104.953125 270.871094 L 104.953125 349.617188 C 104.953125 351.761719 106.695312 353.507812 108.847656 353.507812 C 130.292969 353.507812 233.964844 353.507812 255.417969 353.507812 C 257.5625 353.507812 259.304688 351.761719 259.304688 349.617188 L 259.304688 260.375 C 259.300781 258.226562 257.558594 256.480469 255.414062 256.480469 Z M 173.128906 323.839844 C 172.136719 324.839844 170.789062 325.398438 169.386719 325.398438 C 161.339844 325.398438 146.132812 325.398438 138.097656 325.398438 C 136.699219 325.398438 135.34375 324.839844 134.351562 323.839844 C 133.363281 322.851562 132.804688 321.511719 132.804688 320.105469 C 132.804688 318.703125 133.363281 317.351562 134.351562 316.363281 C 135.34375 315.359375 136.695312 314.804688 138.097656 314.804688 C 146.132812 314.804688 161.339844 314.804688 169.386719 314.804688 C 170.785156 314.804688 172.136719 315.359375 173.128906 316.363281 C 174.121094 317.351562 174.675781 318.703125 174.675781 320.105469 C 174.675781 321.511719 174.121094 322.851562 173.128906 323.839844 Z M 173.128906 308.230469 C 172.136719 309.230469 170.789062 309.785156 169.386719 309.785156 C 161.339844 309.785156 146.132812 309.785156 138.097656 309.785156 C 136.699219 309.785156 135.34375 309.230469 134.351562 308.230469 C 133.363281 307.238281 132.804688 305.898438 132.804688 304.496094 C 132.804688 303.089844 133.363281 301.742188 134.351562 300.75 C 135.34375 299.75 136.695312 299.195312 138.097656 299.195312 L 169.386719 299.195312 C 170.785156 299.195312 172.136719 299.75 173.128906 300.75 C 174.121094 301.742188 174.675781 303.089844 174.675781 304.496094 C 174.675781 305.898438 174.121094 307.238281 173.128906 308.230469 Z M 173.128906 292.621094 C 172.136719 293.621094 170.789062 294.175781 169.386719 294.175781 C 161.339844 294.175781 146.132812 294.175781 138.097656 294.175781 C 136.699219 294.175781 135.34375 293.621094 134.351562 292.621094 C 133.363281 291.628906 132.804688 290.289062 132.804688 288.886719 C 132.804688 287.480469 133.363281 286.132812 134.351562 285.140625 C 135.34375 284.140625 136.695312 283.585938 138.097656 283.585938 L 169.386719 283.585938 C 170.785156 283.585938 172.136719 284.140625 173.128906 285.140625 C 174.121094 286.132812 174.675781 287.480469 174.675781 288.886719 C 174.675781 290.289062 174.121094 291.628906 173.128906 292.621094 Z M 767.65625 222.703125 C 767.90625 222.703125 768.144531 222.609375 768.332031 222.445312 L 773.089844 218.246094 L 777.847656 222.445312 C 777.925781 222.511719 778.019531 222.5625 778.113281 222.605469 L 778.113281 219.949219 L 774.636719 216.882812 L 777.699219 214.179688 L 774.609375 214.179688 L 773.089844 215.519531 L 771.570312 214.179688 L 768.480469 214.179688 L 771.546875 216.882812 L 766.976562 220.914062 C 766.773438 221.097656 766.648438 221.34375 766.632812 221.617188 C 766.617188 221.890625 766.707031 222.152344 766.890625 222.359375 C 767.082031 222.578125 767.363281 222.703125 767.65625 222.703125 Z M 763.5 230.308594 C 763.132812 230.308594 762.769531 230.234375 762.429688 230.101562 C 762.828125 230.847656 763.074219 231.683594 763.074219 232.585938 C 763.074219 235.519531 760.703125 237.890625 757.769531 237.890625 L 648.375 237.890625 C 645.445312 237.890625 643.070312 235.519531 643.070312 232.585938 C 643.070312 229.660156 645.445312 227.28125 648.375 227.28125 C 668.21875 227.28125 737.929688 227.28125 757.769531 227.28125 C 758.839844 227.28125 759.832031 227.605469 760.664062 228.148438 C 760.589844 227.890625 760.539062 227.621094 760.539062 227.347656 C 760.539062 224.167969 760.539062 218.9375 760.539062 214.183594 L 630.707031 214.183594 L 630.707031 318.136719 L 778.113281 318.136719 L 778.113281 230.308594 Z M 719.964844 294.574219 L 649.253906 294.054688 C 648.753906 294.050781 648.351562 293.644531 648.355469 293.140625 C 648.359375 292.640625 648.765625 292.242188 649.265625 292.242188 L 719.980469 292.761719 C 720.480469 292.765625 720.878906 293.175781 720.875 293.675781 C 720.871094 294.175781 720.464844 294.578125 719.964844 294.574219 Z M 719.972656 282.191406 L 649.257812 282.191406 C 648.757812 282.191406 648.351562 281.785156 648.351562 281.285156 C 648.351562 280.785156 648.757812 280.382812 649.257812 280.382812 L 719.972656 280.382812 C 720.472656 280.382812 720.875 280.785156 720.875 281.285156 C 720.875 281.785156 720.472656 282.191406 719.972656 282.191406 Z M 719.972656 270.742188 L 649.257812 270.742188 C 648.757812 270.742188 648.351562 270.335938 648.351562 269.835938 C 648.351562 269.335938 648.757812 268.929688 649.257812 268.929688 L 719.972656 268.929688 C 720.472656 268.929688 720.875 269.335938 720.875 269.835938 C 720.875 270.335938 720.472656 270.742188 719.972656 270.742188 Z M 761.601562 302.523438 L 727.988281 302.523438 L 727.988281 263.980469 L 761.601562 263.980469 Z M 758.441406 254.765625 L 649.050781 254.765625 C 646.121094 254.765625 643.746094 252.394531 643.746094 249.460938 C 643.746094 246.535156 646.121094 244.15625 649.050781 244.15625 C 668.890625 244.15625 738.601562 244.15625 758.441406 244.15625 C 761.371094 244.15625 763.746094 246.535156 763.746094 249.460938 C 763.746094 252.394531 761.371094 254.765625 758.441406 254.765625 Z M 76.84375 557.640625 L 76.84375 568.734375 L 107.855469 568.734375 L 108.417969 616.484375 C 100.011719 605.875 87.019531 599.179688 72.617188 599.210938 C 48.9375 599.265625 21.429688 599.332031 9.5 599.359375 C 5.847656 584.085938 1.15625 564.433594 -2.871094 547.578125 C -4.953125 538.867188 -2.929688 529.675781 2.621094 522.640625 C 7.042969 517.035156 13.328125 513.332031 20.230469 512.039062 L 20.230469 511.449219 L 19.234375 511.449219 C 10.273438 511.449219 1.804688 515.558594 -3.746094 522.589844 C -9.296875 529.625 -11.324219 538.816406 -9.242188 547.53125 C -1.832031 578.550781 7.855469 619.085938 9.09375 624.277344 L 12.492188 639.285156 L 22.417969 639.285156 L 21.949219 639.332031 L -3.5 753.753906 C -3.78125 755.035156 -3.4375 756.375 -2.5625 757.359375 C -1.691406 758.339844 -0.398438 758.84375 0.910156 758.707031 C 4.285156 758.367188 7.0625 755.898438 7.796875 752.582031 C 10.214844 741.726562 15.792969 716.640625 21.113281 692.722656 L 93.277344 692.722656 L 79.738281 753.585938 C 79.453125 754.867188 79.800781 756.210938 80.671875 757.1875 C 81.546875 758.171875 82.835938 758.675781 84.144531 758.539062 C 87.519531 758.199219 90.296875 755.730469 91.035156 752.414062 C 94.1875 738.234375 102.742188 699.785156 109.066406 671.355469 L 110.285156 775.191406 L 116.503906 775.191406 L 118.753906 568.734375 L 266.636719 568.734375 L 269.0625 775.191406 L 275.28125 775.191406 L 277.53125 568.734375 L 303.625 568.734375 L 303.625 557.640625 Z M 76.84375 557.640625 " fill-opacity="1" fill-rule="evenodd"/></g><g clip-path="url(#ff6c897504)"><path fill="#f4913c" d="M 439.230469 274.464844 C 439.570312 274.464844 439.894531 274.394531 440.199219 274.289062 L 440.199219 282.78125 C 439.894531 282.675781 439.570312 282.609375 439.230469 282.609375 L 382.171875 282.609375 L 382.171875 274.460938 L 439.230469 274.460938 Z M 442.164062 177.179688 C 443.84375 171.132812 443.875 165.292969 440.746094 159.929688 C 440.464844 159.445312 439.839844 159.28125 439.355469 159.5625 C 438.871094 159.847656 438.703125 160.472656 438.988281 160.957031 C 441.542969 165.332031 441.714844 170.179688 440.535156 175.261719 C 439.046875 173.960938 437.136719 173.210938 435.09375 173.210938 C 432.261719 173.210938 429.65625 174.636719 428.128906 177.023438 L 427.121094 178.597656 L 426.132812 177.046875 C 424.609375 174.644531 422 173.210938 419.152344 173.210938 C 416.316406 173.210938 413.710938 174.636719 412.183594 177.027344 L 411.175781 178.601562 L 410.1875 177.046875 C 408.660156 174.644531 406.050781 173.210938 403.199219 173.210938 C 400.367188 173.210938 397.761719 174.632812 396.234375 177.019531 L 395.222656 178.597656 L 394.238281 177.046875 C 392.714844 174.644531 390.105469 173.207031 387.257812 173.207031 C 384.6875 173.207031 382.3125 174.390625 380.753906 176.390625 C 379.273438 170.894531 379.289062 165.652344 382.03125 160.949219 C 382.316406 160.464844 382.152344 159.839844 381.667969 159.558594 C 381.183594 159.277344 380.558594 159.441406 380.277344 159.925781 C 376.898438 165.710938 377.183594 172.054688 379.273438 178.617188 L 375.527344 184.488281 C 375.277344 184.878906 375.394531 185.398438 375.78125 185.644531 C 376.175781 185.894531 376.695312 185.78125 376.941406 185.390625 L 379.976562 180.632812 C 382.214844 186.691406 385.808594 192.902344 389.359375 199.023438 C 390.066406 200.25 390.773438 201.46875 391.464844 202.679688 C 397.722656 213.628906 398.460938 247.332031 398.496094 261.222656 L 400.542969 261.222656 C 400.53125 247.171875 399.808594 213.175781 393.234375 201.667969 C 392.539062 200.453125 391.832031 199.230469 391.117188 198.003906 C 387.324219 191.460938 383.46875 184.804688 381.371094 178.449219 L 381.703125 177.929688 C 382.917969 176.023438 384.996094 174.882812 387.257812 174.882812 C 389.527344 174.882812 391.605469 176.027344 392.820312 177.941406 L 394.226562 180.152344 L 393.066406 181.960938 C 392.558594 182.75 392.527344 183.753906 392.988281 184.578125 C 393.449219 185.398438 394.320312 185.894531 395.261719 185.886719 C 396.195312 185.867188 397.019531 185.367188 397.460938 184.542969 C 397.90625 183.71875 397.871094 182.757812 397.367188 181.96875 L 396.21875 180.15625 L 397.648438 177.917969 C 398.867188 176.015625 400.941406 174.882812 403.207031 174.882812 C 405.476562 174.882812 407.554688 176.027344 408.773438 177.9375 L 410.179688 180.152344 L 409.019531 181.957031 C 408.511719 182.75 408.480469 183.753906 408.941406 184.578125 C 409.402344 185.398438 410.273438 185.894531 411.210938 185.882812 C 412.144531 185.867188 412.96875 185.367188 413.410156 184.542969 C 413.855469 183.71875 413.820312 182.757812 413.316406 181.96875 L 412.167969 180.160156 L 413.597656 177.929688 C 414.816406 176.023438 416.894531 174.882812 419.15625 174.882812 C 421.421875 174.882812 423.503906 176.027344 424.71875 177.941406 L 426.121094 180.152344 L 424.964844 181.960938 C 424.453125 182.75 424.425781 183.753906 424.886719 184.578125 C 425.339844 185.386719 426.1875 185.886719 427.113281 185.886719 C 427.125 185.886719 427.144531 185.886719 427.15625 185.886719 C 428.089844 185.867188 428.914062 185.367188 429.359375 184.542969 C 429.800781 183.71875 429.765625 182.757812 429.265625 181.96875 L 428.113281 180.15625 L 429.546875 177.917969 C 430.765625 176.015625 432.839844 174.882812 435.105469 174.882812 C 437.027344 174.882812 438.808594 175.710938 440.050781 177.125 C 438.078125 183.882812 433.964844 191.003906 429.90625 198.003906 C 429.195312 199.230469 428.484375 200.453125 427.789062 201.667969 C 421.214844 213.175781 420.492188 247.171875 420.480469 261.21875 L 422.527344 261.21875 C 422.558594 247.332031 423.300781 213.625 429.558594 202.679688 C 430.25 201.46875 430.957031 200.246094 431.664062 199.023438 C 435.480469 192.449219 439.34375 185.765625 441.523438 179.289062 L 445.429688 185.441406 C 445.679688 185.832031 446.199219 185.945312 446.589844 185.699219 C 446.980469 185.449219 447.097656 184.929688 446.847656 184.539062 Z M 395.980469 183.757812 C 395.910156 183.890625 395.691406 184.207031 395.230469 184.214844 C 394.757812 184.222656 394.53125 183.90625 394.453125 183.769531 C 394.378906 183.632812 394.226562 183.269531 394.480469 182.875 L 395.21875 181.722656 L 395.953125 182.875 C 396.195312 183.265625 396.054688 183.621094 395.980469 183.757812 Z M 411.929688 183.757812 C 411.859375 183.890625 411.636719 184.207031 411.179688 184.214844 C 410.710938 184.21875 410.480469 183.90625 410.402344 183.769531 C 410.328125 183.632812 410.179688 183.269531 410.429688 182.875 L 411.167969 181.726562 L 411.898438 182.875 C 412.144531 183.265625 412.003906 183.621094 411.929688 183.757812 Z M 427.875 183.757812 C 427.804688 183.890625 427.585938 184.207031 427.125 184.214844 C 426.652344 184.222656 426.425781 183.90625 426.347656 183.769531 C 426.273438 183.632812 426.121094 183.269531 426.375 182.875 L 427.113281 181.722656 L 427.84375 182.875 C 428.089844 183.265625 427.949219 183.621094 427.875 183.757812 Z M 799.5 583.042969 C 770.78125 583.042969 688.949219 583.042969 660.238281 583.042969 C 654.652344 583.042969 650.128906 587.566406 650.128906 593.15625 L 650.128906 598.640625 L 809.59375 598.640625 L 809.59375 600.449219 L 650.128906 600.449219 L 650.128906 643.359375 C 650.128906 648.941406 654.648438 653.46875 660.238281 653.46875 C 688.949219 653.46875 770.78125 653.46875 799.5 653.46875 C 805.082031 653.46875 809.601562 648.941406 809.601562 643.359375 C 809.601562 629.980469 809.601562 606.535156 809.601562 593.15625 C 809.601562 587.566406 805.082031 583.042969 799.5 583.042969 Z M 778.203125 591.882812 C 776.949219 591.882812 775.933594 590.863281 775.933594 589.609375 C 775.933594 588.355469 776.949219 587.339844 778.203125 587.339844 C 779.457031 587.339844 780.476562 588.355469 780.476562 589.609375 C 780.476562 590.863281 779.460938 591.882812 778.203125 591.882812 Z M 785.777344 591.882812 C 784.523438 591.882812 783.503906 590.863281 783.503906 589.609375 C 783.503906 588.355469 784.523438 587.339844 785.777344 587.339844 C 787.03125 587.339844 788.046875 588.355469 788.046875 589.609375 C 788.046875 590.863281 787.03125 591.882812 785.777344 591.882812 Z M 793.347656 591.882812 C 792.09375 591.882812 791.078125 590.863281 791.078125 589.609375 C 791.078125 588.355469 792.09375 587.339844 793.347656 587.339844 C 794.601562 587.339844 795.621094 588.355469 795.621094 589.609375 C 795.621094 590.863281 794.601562 591.882812 793.347656 591.882812 Z M 793.640625 639.246094 C 793.257812 639.574219 792.691406 639.535156 792.363281 639.160156 L 767.757812 610.945312 L 747.226562 632.457031 C 747.054688 632.636719 746.820312 632.734375 746.574219 632.734375 C 746.570312 632.734375 746.566406 632.734375 746.5625 632.734375 C 746.3125 632.730469 746.074219 632.625 745.90625 632.441406 L 730.621094 615.742188 L 708.226562 639.554688 C 708.054688 639.734375 707.75 639.890625 707.566406 639.835938 C 707.320312 639.835938 707.089844 639.738281 706.917969 639.5625 L 690.167969 622.269531 L 668.761719 640.480469 C 668.589844 640.625 668.382812 640.695312 668.175781 640.695312 C 667.917969 640.695312 667.664062 640.585938 667.484375 640.375 C 667.160156 639.996094 667.207031 639.425781 667.585938 639.101562 L 689.644531 620.34375 C 690.007812 620.035156 690.550781 620.058594 690.882812 620.402344 L 707.5625 637.621094 L 729.972656 613.789062 C 730.144531 613.605469 730.382812 613.503906 730.632812 613.503906 C 730.851562 613.441406 731.125 613.613281 731.300781 613.800781 L 746.589844 630.503906 L 767.140625 608.976562 C 767.316406 608.792969 767.554688 608.738281 767.816406 608.699219 C 768.066406 608.703125 768.308594 608.816406 768.476562 609.007812 L 793.730469 637.96875 C 794.054688 638.347656 794.015625 638.917969 793.640625 639.246094 Z M 763.5 230.308594 L 782.683594 230.308594 C 783.46875 230.308594 784.21875 229.996094 784.777344 229.441406 C 785.335938 228.882812 785.644531 228.128906 785.644531 227.347656 C 785.644531 222.179688 785.644531 211.59375 785.644531 206.425781 C 785.644531 205.640625 785.335938 204.886719 784.777344 204.332031 C 784.21875 203.78125 783.46875 203.460938 782.683594 203.460938 C 777.851562 203.460938 768.335938 203.460938 763.5 203.460938 C 762.71875 203.460938 761.960938 203.78125 761.410156 204.332031 C 760.851562 204.886719 760.542969 205.640625 760.542969 206.425781 C 760.542969 211.59375 760.542969 222.179688 760.542969 227.347656 C 760.542969 228.128906 760.851562 228.882812 761.410156 229.441406 C 761.960938 229.996094 762.71875 230.308594 763.5 230.308594 Z M 766.980469 212.859375 C 766.5625 212.484375 766.519531 211.839844 766.890625 211.417969 C 767.269531 210.996094 767.910156 210.953125 768.335938 211.328125 L 773.089844 215.519531 L 777.847656 211.324219 C 778.273438 210.957031 778.914062 210.996094 779.289062 211.414062 C 779.660156 211.839844 779.621094 212.484375 779.203125 212.855469 L 774.632812 216.882812 L 779.203125 220.914062 C 779.40625 221.097656 779.53125 221.34375 779.546875 221.617188 C 779.5625 221.890625 779.472656 222.152344 779.289062 222.359375 C 779.101562 222.574219 778.820312 222.703125 778.523438 222.703125 C 778.273438 222.703125 778.035156 222.609375 777.84375 222.441406 L 773.085938 218.246094 L 768.328125 222.445312 C 768.140625 222.609375 767.902344 222.703125 767.652344 222.703125 C 767.359375 222.703125 767.082031 222.578125 766.886719 222.359375 C 766.703125 222.152344 766.613281 221.890625 766.632812 221.617188 C 766.648438 221.347656 766.769531 221.097656 766.972656 220.914062 L 771.542969 216.882812 Z M 184.050781 760.625 L 126.449219 760.625 C 123.472656 748.75 126.351562 742.976562 128.09375 731.589844 L 155.445312 731.589844 C 156.046875 732.625 157.046875 734.183594 158.726562 736.585938 C 163.582031 743.515625 171.226562 747.429688 177.574219 750.496094 C 185.414062 754.28125 184.050781 760.625 184.050781 760.625 Z M 212.171875 305.027344 L 227.316406 320.035156 C 224.660156 322.714844 221.335938 324.648438 217.691406 325.628906 C 206.324219 328.671875 194.617188 321.914062 191.570312 310.546875 C 188.527344 299.179688 195.285156 287.472656 206.652344 284.425781 C 218.019531 281.378906 229.726562 288.140625 232.773438 299.507812 C 233.25 301.296875 233.496094 303.144531 233.496094 305 Z M 290.066406 760.625 L 232.464844 760.625 C 229.484375 748.726562 233.40625 744.488281 232.128906 731.589844 L 259.402344 731.589844 C 260.089844 732.964844 261.152344 734.84375 262.605469 736.585938 C 268.03125 743.082031 277.242188 747.429688 283.589844 750.496094 C 291.429688 754.28125 290.066406 760.625 290.066406 760.625 Z M 99.433594 270.871094 L 119.304688 270.871094 C 120.113281 270.871094 120.894531 270.550781 121.46875 269.972656 C 122.046875 269.394531 122.367188 268.613281 122.367188 267.804688 C 122.367188 262.453125 122.367188 251.484375 122.367188 246.132812 C 122.367188 245.320312 122.046875 244.539062 121.46875 243.964844 C 120.894531 243.394531 120.113281 243.0625 119.304688 243.0625 C 114.296875 243.0625 104.4375 243.0625 99.433594 243.0625 C 98.621094 243.0625 97.835938 243.394531 97.265625 243.964844 C 96.6875 244.539062 96.367188 245.320312 96.367188 246.132812 C 96.367188 251.484375 96.367188 262.449219 96.367188 267.804688 C 96.367188 268.617188 96.6875 269.394531 97.265625 269.972656 C 97.835938 270.550781 98.621094 270.871094 99.433594 270.871094 Z M 103.039062 252.796875 C 102.601562 252.414062 102.558594 251.746094 102.941406 251.304688 C 103.332031 250.863281 104.003906 250.824219 104.441406 251.210938 L 109.363281 255.554688 L 114.292969 251.210938 C 114.5 251.023438 114.757812 250.921875 115.058594 250.945312 C 115.339844 250.960938 115.601562 251.089844 115.789062 251.300781 C 115.976562 251.515625 116.070312 251.789062 116.050781 252.070312 C 116.03125 252.355469 115.90625 252.613281 115.691406 252.796875 L 110.96875 256.964844 L 115.699219 261.136719 C 115.910156 261.324219 116.039062 261.585938 116.054688 261.867188 C 116.074219 262.148438 115.980469 262.421875 115.789062 262.632812 C 115.589844 262.859375 115.300781 262.988281 114.996094 262.988281 C 114.734375 262.988281 114.488281 262.894531 114.292969 262.722656 L 109.363281 258.375 L 104.433594 262.726562 C 104.246094 262.894531 103.996094 262.988281 103.730469 262.988281 C 103.429688 262.988281 103.140625 262.859375 102.941406 262.632812 C 102.554688 262.195312 102.597656 261.527344 103.027344 261.140625 L 107.761719 256.964844 Z M 391.488281 295.84375 L 430.875 295.84375 C 428.613281 304.621094 420.667969 311.113281 411.183594 311.113281 C 401.699219 311.113281 393.753906 304.621094 391.488281 295.84375 Z M 187.550781 497.152344 L 143.863281 513.59375 L 108.371094 483.578125 C 107.121094 482.515625 105.789062 481.71875 104.410156 481.152344 C 102.914062 480.050781 101.035156 479.199219 98.648438 478.785156 C 97.574219 478.597656 96.550781 478.421875 95.554688 478.253906 L 95.222656 483.40625 C 94.570312 491.027344 88.464844 496.902344 80.839844 496.25 C 73.210938 495.597656 67.558594 488.890625 68.210938 481.265625 L 68.898438 476.960938 C 64.121094 477.6875 58.703125 479.011719 51.617188 481.132812 C 43.773438 483.476562 38.019531 490.183594 38.035156 500.335938 C 38.078125 524.90625 43.988281 547.109375 51.15625 563.730469 C 54.65625 571.839844 97.113281 568.472656 99.902344 562.871094 C 100.378906 561.910156 100.816406 560.9375 101.257812 559.96875 L 134.726562 559.515625 C 140.265625 559.4375 143.03125 555.511719 142.953125 549.972656 C 142.882812 544.832031 140.625 542.3125 135.628906 541.796875 L 108.558594 537.683594 C 109.589844 532.792969 110.300781 527.898438 110.71875 523.042969 L 132.839844 539.199219 L 133.773438 539.898438 C 137.808594 542.921875 143.109375 543.054688 147.203125 540.667969 L 196.863281 512.558594 C 201.644531 509.761719 203.019531 506.078125 200.226562 501.292969 C 197.628906 496.851562 192.152344 495.140625 187.550781 497.152344 Z M 123.703125 551.652344 C 123.703125 547.503906 126.753906 543.988281 130.863281 543.398438 L 133.988281 542.976562 L 132.230469 556.859375 L 125.90625 556.867188 C 124.570312 555.414062 123.703125 553.601562 123.703125 551.652344 Z M 611.515625 411.367188 C 611.957031 417.203125 612.378906 423.042969 612.738281 428.882812 L 591.761719 429.730469 C 590.027344 443.921875 588.667969 457.054688 588.667969 463.347656 C 588.667969 476.902344 590.71875 500.789062 590.71875 510.667969 C 590.71875 513.285156 588.820312 515.503906 586.242188 515.941406 C 559.003906 520.566406 527.277344 520.433594 499.304688 515.90625 C 496.707031 515.484375 494.785156 513.257812 494.785156 510.625 C 494.785156 500.71875 496.839844 476.882812 496.839844 463.347656 C 496.839844 457.007812 495.84375 443.742188 494.53125 429.4375 L 467.351562 414.84375 L 482.855469 384.128906 C 484.921875 379.628906 488.652344 376.453125 492.976562 374.953125 C 492.996094 374.945312 493.011719 374.933594 493.03125 374.925781 C 504.351562 370.199219 515.496094 367.058594 526.59375 365.445312 L 526.859375 368.878906 C 527.597656 377.804688 535.148438 384.644531 544.636719 383.835938 C 554.128906 383.027344 561.222656 375.136719 560.480469 366.210938 L 560.335938 365.320312 C 573.058594 367.039062 585.898438 370.722656 599.039062 376.398438 C 599.039062 376.398438 599.03125 376.460938 599.027344 376.484375 C 604.546875 379.023438 608.675781 384.253906 609.484375 390.726562 C 610.347656 397.597656 610.921875 404.484375 611.515625 411.367188 Z M 424.992188 450.40625 L 313.195312 450.40625 L 313.195312 338.53125 L 424.992188 338.53125 Z M 424.992188 450.40625 " fill-opacity="1" fill-rule="nonzero"/></g><g clip-path="url(#846ebe8764)"><path fill="#293237" d="M 502.226562 303.027344 C 502.148438 302.660156 502.296875 302.28125 502.601562 302.066406 C 502.90625 301.847656 503.3125 301.832031 503.632812 302.019531 C 504.226562 302.378906 504.945312 302.71875 505.71875 302.902344 C 506.0625 302.984375 506.425781 302.898438 506.699219 302.675781 C 506.972656 302.449219 507.125 302.105469 507.105469 301.75 C 507.105469 301.796875 507.109375 301.820312 507.109375 301.859375 C 507.109375 301.863281 507.109375 301.867188 507.109375 301.871094 C 507.140625 302.5625 507.175781 302.980469 507.109375 301.859375 C 506.769531 294.996094 510.757812 288.652344 517.089844 285.984375 C 522.113281 283.867188 528.96875 282.144531 536.574219 283.535156 C 552.679688 286.472656 555.945312 299.886719 555.945312 299.886719 C 561.054688 301.855469 565.136719 305.828125 567.238281 310.886719 C 569.339844 315.941406 569.28125 321.636719 567.078125 326.648438 C 564.414062 332.699219 560.761719 338.410156 556.179688 339.804688 L 555.738281 337.105469 C 557.355469 335.867188 558.46875 334.167969 558.8125 332.160156 C 559.625 327.371094 557.292969 322.980469 553.601562 322.351562 C 549.914062 321.722656 549.0625 325.207031 548.65625 327.609375 L 548.554688 328.203125 C 546.890625 328.132812 545.492188 328.164062 545.492188 328.164062 C 543.640625 322.6875 546.179688 313.988281 545.207031 307.421875 C 526.339844 303.6875 519.441406 311.605469 511.355469 308.320312 C 511.15625 309.015625 511 309.730469 510.863281 310.449219 C 506.449219 309.320312 503.078125 307.078125 502.226562 303.027344 Z M 131.082031 709.957031 C 131.042969 709.957031 131.007812 709.9375 130.96875 709.933594 L 127.914062 731.589844 L 186.183594 731.589844 L 187.785156 709.777344 C 187.648438 709.882812 187.480469 709.957031 187.292969 709.957031 Z M 254.261719 709.957031 L 201.136719 709.957031 L 207.722656 731.589844 L 259.90625 731.589844 L 254.9375 709.566406 C 254.796875 709.796875 254.550781 709.957031 254.261719 709.957031 Z M 89.773438 557.832031 C 89.777344 558.828125 90.582031 559.632812 91.578125 559.628906 L 133.183594 559.582031 L 138.253906 559.578125 L 175.101562 559.535156 L 220.972656 559.484375 C 221.964844 559.480469 222.878906 558.675781 223.003906 557.679688 L 225.324219 539.304688 C 222.742188 539.242188 218.894531 537.351562 217.210938 534.859375 C 215.714844 532.644531 217.171875 531.398438 218.074219 530.878906 C 218.105469 530.832031 218.128906 530.789062 218.175781 530.761719 C 217.539062 530.28125 217.101562 529.785156 216.980469 529.292969 C 216.371094 526.816406 217.777344 526 218.648438 525.730469 C 218.617188 525.667969 218.589844 525.597656 218.605469 525.523438 C 218.617188 525.472656 218.65625 525.445312 218.6875 525.40625 C 217.914062 524.875 217.359375 524.335938 217.175781 523.828125 C 216.863281 522.964844 217.007812 522.230469 217.339844 521.625 C 217.875 520.65625 218.890625 520.105469 219.953125 520.105469 C 220 519.9375 220.164062 519.828125 220.335938 519.863281 C 220.347656 519.867188 220.625 519.925781 221.09375 520.039062 C 220.773438 519.613281 220.5625 519.105469 220.503906 518.554688 C 220.40625 517.703125 220.609375 516.761719 221.648438 516.140625 C 223.035156 515.316406 225.792969 515.539062 228.238281 516.296875 L 230.785156 496.179688 C 230.910156 495.1875 230.207031 494.382812 229.210938 494.382812 L 191.597656 494.425781 L 141.417969 494.480469 C 140.425781 494.480469 139.515625 495.289062 139.390625 496.285156 L 131.730469 556.859375 L 89.773438 556.90625 Z M 109.101562 535.914062 C 109.527344 535.914062 109.882812 535.582031 109.914062 535.152344 L 111.429688 512.929688 C 111.460938 512.480469 111.121094 512.089844 110.671875 512.0625 C 110.207031 512.042969 109.835938 512.371094 109.804688 512.820312 L 108.289062 535.042969 C 108.257812 535.492188 108.597656 535.878906 109.046875 535.910156 C 109.066406 535.910156 109.082031 535.914062 109.101562 535.914062 Z M 88.890625 537.238281 C 94.925781 538.582031 101.710938 539.269531 101.78125 539.277344 C 101.808594 539.277344 101.832031 539.277344 101.863281 539.277344 C 102.277344 539.277344 102.628906 538.964844 102.671875 538.546875 C 102.714844 538.097656 102.390625 537.699219 101.941406 537.652344 C 101.875 537.648438 95.183594 536.96875 89.242188 535.648438 C 84.648438 534.632812 71.03125 515.621094 66.171875 508.378906 C 65.917969 508.007812 65.410156 507.910156 65.039062 508.15625 C 64.667969 508.410156 64.566406 508.914062 64.816406 509.289062 C 66.644531 512.003906 82.828125 535.894531 88.890625 537.238281 Z M 47.328125 529.949219 C 47.085938 529.566406 46.585938 529.457031 46.207031 529.691406 C 45.824219 529.929688 45.707031 530.429688 45.945312 530.8125 C 46.605469 531.867188 62.289062 556.71875 77.425781 558.449219 C 77.457031 558.453125 77.484375 558.453125 77.519531 558.453125 C 77.929688 558.453125 78.277344 558.144531 78.324219 557.730469 C 78.375 557.285156 78.054688 556.882812 77.609375 556.832031 C 63.257812 555.191406 47.484375 530.203125 47.328125 529.949219 Z M 44.25 485.222656 C 46.339844 483.34375 48.84375 481.960938 51.617188 481.128906 C 58.703125 479.011719 64.121094 477.683594 68.898438 476.957031 L 70.824219 464.945312 L 71.550781 455.910156 L 69.574219 450.960938 C 69.753906 450.769531 69.914062 450.554688 70.078125 450.347656 C 69.765625 450.429688 69.441406 450.476562 69.09375 450.445312 C 65.019531 450.058594 61.898438 447.585938 61.203125 444.09375 C 60.308594 439.605469 62.390625 435.410156 65.847656 434.71875 C 69.308594 434.03125 70.199219 437.289062 70.644531 439.539062 L 72.070312 446.699219 C 73.929688 441.757812 73.988281 435.359375 73.855469 431.992188 C 73.894531 431.992188 73.933594 431.992188 73.96875 431.992188 C 74.304688 431.992188 74.652344 431.984375 75.007812 431.984375 C 75.351562 431.980469 75.695312 431.976562 76.054688 431.96875 C 76.371094 431.964844 76.695312 431.953125 77.023438 431.945312 C 77.433594 431.933594 77.84375 431.921875 78.265625 431.90625 C 78.574219 431.894531 78.882812 431.878906 79.195312 431.863281 C 79.65625 431.839844 80.113281 431.8125 80.585938 431.78125 C 80.886719 431.761719 81.191406 431.734375 81.496094 431.710938 C 81.984375 431.671875 82.476562 431.628906 82.972656 431.574219 C 83.273438 431.542969 83.570312 431.511719 83.875 431.472656 C 84.382812 431.414062 84.890625 431.34375 85.40625 431.269531 C 85.699219 431.226562 85.992188 431.179688 86.289062 431.132812 C 86.808594 431.046875 87.328125 430.949219 87.847656 430.847656 C 88.132812 430.789062 88.417969 430.730469 88.699219 430.667969 C 89.226562 430.550781 89.746094 430.421875 90.261719 430.28125 C 90.535156 430.210938 90.804688 430.136719 91.074219 430.058594 C 91.597656 429.910156 92.105469 429.738281 92.617188 429.5625 C 92.871094 429.472656 93.125 429.390625 93.375 429.292969 C 93.886719 429.097656 94.382812 428.882812 94.875 428.660156 C 95.105469 428.554688 95.339844 428.457031 95.566406 428.34375 C 96.0625 428.101562 96.539062 427.828125 97.007812 427.550781 C 97.207031 427.433594 97.414062 427.320312 97.609375 427.195312 C 98.085938 426.890625 98.535156 426.554688 98.980469 426.207031 C 99.140625 426.082031 99.316406 425.964844 99.472656 425.832031 C 99.929688 425.445312 100.351562 425.023438 100.761719 424.589844 C 100.878906 424.46875 101.007812 424.355469 101.117188 424.230469 C 101.566406 423.722656 101.972656 423.171875 102.351562 422.597656 C 102.398438 422.519531 102.460938 422.453125 102.511719 422.375 C 102.929688 421.703125 103.308594 420.992188 103.625 420.226562 C 104.933594 422.839844 105.738281 425.757812 105.882812 428.867188 L 106.902344 451.351562 C 107.214844 458.53125 103.117188 465.46875 96.1875 468.453125 L 95.222656 483.40625 L 95.554688 478.257812 C 96.554688 478.425781 97.574219 478.601562 98.648438 478.785156 C 101.039062 479.199219 102.917969 480.050781 104.414062 481.15625 C 105.789062 481.71875 107.125 482.515625 108.375 483.578125 L 115.679688 489.757812 C 121.492188 485.640625 125.292969 478.875 125.292969 471.207031 C 125.292969 462.910156 120.835938 455.671875 114.195312 451.707031 C 114.066406 451.167969 113.957031 450.636719 113.8125 450.09375 C 112.574219 445.40625 111.523438 440.671875 110.792969 435.878906 C 109.789062 429.292969 107.875 421.355469 103.980469 416.128906 C 99.066406 409.511719 91.953125 406.253906 81.285156 407.339844 C 78.71875 407.601562 76.402344 408.265625 74.320312 409.222656 C 72.546875 409.953125 70.828125 410.871094 69.207031 412.039062 C 63.875 415.867188 60.507812 421.394531 59.265625 427.347656 C 57.023438 433.121094 56.332031 437.886719 56.332031 437.886719 C 40.023438 443.039062 35.800781 455.25 35.53125 465.875 C 35.347656 473.453125 38.667969 480.511719 44.25 485.222656 Z M 494.589844 430.886719 C 494.617188 430.886719 494.644531 430.886719 494.675781 430.882812 C 495.121094 430.835938 495.445312 430.4375 495.398438 429.988281 L 492.617188 402.933594 C 492.574219 402.484375 492.167969 402.160156 491.726562 402.207031 C 491.277344 402.25 490.953125 402.652344 491 403.097656 L 493.78125 430.15625 C 493.824219 430.574219 494.179688 430.886719 494.589844 430.886719 Z M 547.730469 413.144531 L 574.667969 413.144531 C 575.117188 413.144531 575.484375 413.511719 575.484375 413.960938 L 575.484375 426.082031 C 575.484375 433.960938 569.078125 440.367188 561.199219 440.367188 C 553.324219 440.367188 546.914062 433.960938 546.914062 426.082031 L 546.914062 413.960938 C 546.917969 413.511719 547.28125 413.144531 547.730469 413.144531 Z M 548.546875 426.082031 C 548.546875 433.0625 554.222656 438.738281 561.199219 438.738281 C 568.175781 438.738281 573.851562 433.0625 573.851562 426.082031 L 573.851562 414.773438 L 548.546875 414.773438 Z M 591.660156 430.457031 C 591.699219 430.460938 591.734375 430.464844 591.773438 430.464844 C 592.171875 430.464844 592.519531 430.167969 592.578125 429.761719 L 596.308594 402.558594 C 596.367188 402.113281 596.054688 401.703125 595.609375 401.640625 C 595.152344 401.597656 594.753906 401.890625 594.691406 402.335938 L 590.960938 429.539062 C 590.902344 429.984375 591.214844 430.398438 591.660156 430.457031 Z M 599.007812 773.027344 C 598.121094 767.605469 594.640625 763.792969 590.664062 760.171875 C 590.667969 760.171875 590.667969 760.171875 590.667969 760.171875 C 590.527344 760.042969 590.378906 759.914062 590.238281 759.785156 C 589.039062 758.707031 587.8125 757.632812 586.59375 756.542969 C 586.3125 756.289062 586.03125 756.03125 585.75 755.773438 C 585.453125 755.496094 585.15625 755.222656 584.859375 754.941406 C 584.558594 754.65625 584.265625 754.367188 583.972656 754.074219 C 583.703125 753.8125 583.441406 753.542969 583.179688 753.273438 C 582.882812 752.960938 582.59375 752.640625 582.304688 752.320312 C 582.070312 752.058594 581.828125 751.792969 581.601562 751.519531 C 581.308594 751.171875 581.03125 750.808594 580.757812 750.445312 C 580.558594 750.183594 580.351562 749.925781 580.160156 749.65625 C 579.867188 749.242188 579.601562 748.804688 579.335938 748.367188 C 579.191406 748.128906 579.035156 747.902344 578.894531 747.65625 C 578.515625 746.976562 578.167969 746.269531 577.859375 745.527344 C 577.855469 745.519531 577.851562 745.507812 577.847656 745.496094 C 577.71875 745.195312 577.617188 744.886719 577.503906 744.578125 C 576.023438 744.085938 574.542969 743.890625 573.066406 743.96875 C 572.320312 744.007812 571.578125 744.113281 570.835938 744.285156 C 567.152344 745.148438 563.519531 747.632812 560.058594 751.332031 C 557.953125 753.582031 555.996094 754.167969 554.335938 753.988281 C 553.820312 753.929688 553.328125 753.804688 552.875 753.621094 C 552.847656 754.234375 552.820312 754.859375 552.792969 755.5 C 552.785156 755.738281 552.773438 755.984375 552.761719 756.226562 C 552.75 756.589844 552.734375 756.949219 552.71875 757.324219 C 552.707031 757.71875 552.691406 758.121094 552.675781 758.527344 C 552.667969 758.761719 552.660156 758.996094 552.652344 759.234375 C 552.636719 759.71875 552.621094 760.210938 552.605469 760.714844 C 552.601562 760.855469 552.597656 761 552.59375 761.148438 C 552.488281 764.699219 552.414062 768.695312 552.394531 773.359375 C 552.390625 774.679688 553.457031 775.761719 554.777344 775.761719 L 596.644531 775.761719 C 598.101562 775.765625 599.246094 774.464844 599.007812 773.027344 Z M 589.15625 514.414062 C 588.382812 515.1875 587.386719 515.746094 586.242188 515.941406 C 559.007812 520.566406 527.277344 520.433594 499.304688 515.90625 C 498.386719 515.757812 497.5625 515.371094 496.867188 514.835938 L 492.898438 622.863281 L 488.304688 730.699219 L 515.175781 730.699219 C 515.1875 730.65625 515.203125 730.605469 515.21875 730.5625 L 529.378906 730.492188 L 541.234375 541.398438 L 542.601562 529.933594 L 546.105469 530.289062 L 552.222656 730.699219 L 595.382812 732.515625 Z M 486.074219 745.355469 C 481.402344 751.191406 469.167969 758.628906 459.679688 763.234375 L 463.800781 769.667969 L 513.234375 769.667969 C 513.355469 764.582031 513.058594 757.152344 510.949219 750.660156 C 504.878906 753.761719 494.089844 755.929688 486.074219 745.355469 Z M 459.679688 763.234375 C 458.238281 763.933594 456.855469 764.570312 455.578125 765.125 C 449.957031 767.5625 448.535156 770.371094 448.175781 773.074219 C 447.988281 774.503906 449.105469 775.769531 450.546875 775.769531 L 510.671875 775.769531 C 511.917969 775.769531 512.957031 774.808594 513.046875 773.566406 C 513.121094 772.550781 513.195312 771.210938 513.230469 769.667969 L 463.796875 769.667969 Z M 67.003906 599.226562 C 68.890625 599.222656 70.769531 599.214844 72.617188 599.210938 C 73.847656 599.210938 75.0625 599.273438 76.269531 599.367188 C 76.546875 599.386719 76.828125 599.410156 77.105469 599.4375 C 78.304688 599.554688 79.496094 599.699219 80.667969 599.90625 C 80.71875 599.917969 80.769531 599.929688 80.820312 599.9375 C 81.96875 600.144531 83.101562 600.40625 84.222656 600.699219 C 84.433594 600.753906 84.648438 600.808594 84.859375 600.867188 C 86.03125 601.191406 87.1875 601.550781 88.320312 601.964844 C 88.347656 601.976562 88.375 601.988281 88.40625 602 C 89.542969 602.417969 90.652344 602.886719 91.746094 603.390625 C 91.859375 603.441406 91.976562 603.492188 92.089844 603.546875 C 94.375 604.621094 96.558594 605.882812 98.621094 607.3125 C 98.652344 607.335938 98.683594 607.355469 98.71875 607.382812 C 99.765625 608.113281 100.78125 608.882812 101.761719 609.699219 C 101.761719 609.699219 101.765625 609.699219 101.765625 609.699219 C 104.203125 611.726562 106.441406 613.992188 108.417969 616.484375 L 108.042969 584.433594 L 107.921875 574.238281 C 94.136719 574.339844 91.035156 574.5 90.355469 574.574219 C 90.25 574.621094 90.136719 574.648438 90.015625 574.648438 C 89.972656 574.648438 89.925781 574.644531 89.878906 574.636719 C 89.464844 574.5625 89.140625 574.171875 89.171875 573.753906 C 89.25 572.773438 89.269531 572.738281 107.902344 572.609375 L 107.882812 571.050781 C 107.0625 570.21875 106.164062 569.449219 105.191406 568.734375 L 76.84375 568.734375 L 76.84375 568.382812 C 65.382812 569.019531 53.550781 567.953125 51.324219 564.007812 C 37.988281 569.878906 33.46875 583.644531 34.203125 599.304688 C 44.382812 599.277344 55.929688 599.25 67.003906 599.226562 Z M 206.605469 579.394531 L 175.164062 577.292969 C 174.660156 577.234375 174.160156 577.160156 173.640625 577.128906 L 118.703125 573.523438 L 118.671875 576.472656 L 118.667969 576.675781 L 118.089844 629.667969 L 118.058594 632.597656 L 141.085938 632.472656 C 141.085938 632.28125 141.144531 632.089844 141.273438 631.9375 L 151.40625 620.195312 C 151.699219 619.851562 152.214844 619.816406 152.554688 620.109375 C 152.898438 620.402344 152.933594 620.917969 152.640625 621.257812 L 142.507812 633 C 142.347656 633.1875 142.121094 633.285156 141.890625 633.285156 C 141.855469 633.285156 141.820312 633.25 141.785156 633.242188 L 131.195312 708.328125 L 187.292969 708.328125 C 187.519531 708.328125 187.726562 708.425781 187.871094 708.574219 L 190.367188 674.597656 L 200.65625 708.375 C 200.730469 708.351562 200.804688 708.328125 200.886719 708.328125 L 254.261719 708.328125 C 254.421875 708.328125 254.5625 708.386719 254.691406 708.46875 L 230.855469 602.859375 C 227.917969 589.8125 219.953125 580.261719 206.605469 579.394531 Z M 196.230469 605.976562 L 191.488281 670.523438 C 191.453125 670.949219 191.097656 671.277344 190.675781 671.277344 C 190.652344 671.277344 190.636719 671.277344 190.613281 671.277344 C 190.164062 671.242188 189.828125 670.851562 189.863281 670.402344 L 194.605469 605.867188 C 195.066406 598.679688 193.824219 592.617188 190.917969 587.863281 C 190.679688 587.476562 190.804688 586.980469 191.1875 586.742188 C 191.566406 586.507812 192.070312 586.632812 192.304688 587.011719 C 195.390625 592.058594 196.710938 598.441406 196.230469 605.976562 Z M 779.203125 220.914062 L 774.636719 216.886719 L 779.203125 212.859375 C 779.621094 212.488281 779.664062 211.839844 779.289062 211.417969 C 778.917969 211 778.273438 210.957031 777.847656 211.328125 L 773.09375 215.523438 L 768.335938 211.328125 C 767.914062 210.953125 767.269531 210.996094 766.890625 211.417969 C 766.523438 211.839844 766.5625 212.488281 766.984375 212.859375 L 771.546875 216.886719 L 766.976562 220.917969 C 766.777344 221.097656 766.652344 221.347656 766.636719 221.617188 C 766.621094 221.890625 766.710938 222.15625 766.894531 222.359375 C 767.085938 222.578125 767.367188 222.703125 767.660156 222.703125 C 767.910156 222.703125 768.148438 222.609375 768.335938 222.445312 L 773.09375 218.246094 L 777.851562 222.445312 C 778.039062 222.609375 778.28125 222.703125 778.53125 222.703125 C 778.828125 222.703125 779.109375 222.574219 779.296875 222.359375 C 779.480469 222.15625 779.570312 221.890625 779.550781 221.617188 C 779.53125 221.347656 779.410156 221.097656 779.203125 220.914062 Z M 115.699219 261.140625 L 110.96875 256.964844 L 115.691406 252.800781 C 115.90625 252.613281 116.03125 252.355469 116.050781 252.074219 C 116.070312 251.792969 115.976562 251.515625 115.789062 251.300781 C 115.601562 251.089844 115.339844 250.960938 115.058594 250.949219 C 114.757812 250.921875 114.5 251.027344 114.292969 251.210938 L 109.363281 255.558594 L 104.441406 251.214844 C 104.003906 250.828125 103.332031 250.867188 102.941406 251.308594 C 102.558594 251.746094 102.601562 252.414062 103.039062 252.796875 L 107.765625 256.96875 L 103.03125 261.144531 C 102.597656 261.53125 102.554688 262.199219 102.941406 262.636719 C 103.140625 262.863281 103.433594 262.992188 103.734375 262.992188 C 103.996094 262.992188 104.246094 262.898438 104.433594 262.730469 L 109.367188 258.378906 L 114.296875 262.726562 C 114.488281 262.898438 114.738281 262.992188 115 262.992188 C 115.300781 262.992188 115.589844 262.863281 115.792969 262.636719 C 115.980469 262.425781 116.074219 262.152344 116.054688 261.871094 C 116.039062 261.585938 115.910156 261.328125 115.699219 261.140625 Z M 419.847656 355.902344 L 416.40625 352.660156 L 419.84375 349.421875 C 419.964844 349.308594 420.03125 349.15625 420.039062 348.992188 C 420.042969 348.824219 419.984375 348.667969 419.871094 348.546875 C 419.636719 348.300781 419.242188 348.289062 418.996094 348.519531 L 415.507812 351.808594 L 412.011719 348.519531 C 411.898438 348.410156 411.75 348.351562 411.589844 348.351562 C 411.585938 348.351562 411.578125 348.351562 411.570312 348.351562 C 411.40625 348.359375 411.253906 348.429688 411.144531 348.546875 C 411.03125 348.667969 410.96875 348.824219 410.972656 348.988281 C 410.980469 349.15625 411.046875 349.308594 411.167969 349.417969 L 414.605469 352.65625 L 411.164062 355.898438 C 410.917969 356.128906 410.90625 356.519531 411.140625 356.769531 C 411.253906 356.890625 411.417969 356.964844 411.585938 356.964844 C 411.742188 356.964844 411.894531 356.90625 412.007812 356.792969 L 415.503906 353.503906 L 418.996094 356.796875 C 419.113281 356.90625 419.261719 356.964844 419.417969 356.964844 C 419.589844 356.964844 419.753906 356.890625 419.867188 356.769531 C 419.980469 356.648438 420.042969 356.492188 420.035156 356.328125 C 420.035156 356.167969 419.96875 356.011719 419.847656 355.902344 Z M 337.640625 364.929688 L 326.152344 364.929688 C 325.8125 364.929688 325.53125 365.207031 325.53125 365.546875 L 325.53125 377.039062 C 325.53125 377.378906 325.808594 377.65625 326.152344 377.65625 L 337.640625 377.65625 C 337.980469 377.65625 338.261719 377.378906 338.261719 377.039062 L 338.261719 365.546875 C 338.257812 365.207031 337.980469 364.929688 337.640625 364.929688 Z M 337.640625 382.878906 L 326.152344 382.878906 C 325.8125 382.878906 325.53125 383.15625 325.53125 383.5 L 325.53125 394.988281 C 325.53125 395.328125 325.808594 395.605469 326.152344 395.605469 L 337.640625 395.605469 C 337.980469 395.605469 338.261719 395.328125 338.261719 394.988281 L 338.261719 383.5 C 338.257812 383.15625 337.980469 382.878906 337.640625 382.878906 Z M 337.640625 400.832031 L 326.152344 400.832031 C 325.8125 400.832031 325.53125 401.109375 325.53125 401.449219 L 325.53125 412.941406 C 325.53125 413.28125 325.808594 413.558594 326.152344 413.558594 L 337.640625 413.558594 C 337.980469 413.558594 338.261719 413.28125 338.261719 412.941406 L 338.261719 401.449219 C 338.257812 401.109375 337.980469 400.832031 337.640625 400.832031 Z M 337.640625 418.785156 L 326.152344 418.785156 C 325.8125 418.785156 325.53125 419.0625 325.53125 419.402344 L 325.53125 430.890625 C 325.53125 431.230469 325.808594 431.511719 326.152344 431.511719 L 337.640625 431.511719 C 337.980469 431.511719 338.261719 431.234375 338.261719 430.890625 L 338.261719 419.402344 C 338.257812 419.0625 337.980469 418.785156 337.640625 418.785156 Z M 407.835938 371.136719 L 345.292969 371.136719 C 344.953125 371.136719 344.675781 371.414062 344.675781 371.753906 C 344.675781 372.097656 344.953125 372.371094 345.292969 372.371094 L 407.835938 372.371094 C 408.175781 372.371094 408.453125 372.097656 408.453125 371.753906 C 408.453125 371.414062 408.175781 371.136719 407.835938 371.136719 Z M 407.835938 389.148438 L 345.292969 389.148438 C 344.953125 389.148438 344.675781 389.425781 344.675781 389.765625 C 344.675781 390.105469 344.953125 390.382812 345.292969 390.382812 L 407.835938 390.382812 C 408.175781 390.382812 408.453125 390.105469 408.453125 389.765625 C 408.453125 389.425781 408.175781 389.148438 407.835938 389.148438 Z M 407.835938 407.160156 L 345.292969 407.160156 C 344.953125 407.160156 344.675781 407.4375 344.675781 407.777344 C 344.675781 408.117188 344.953125 408.398438 345.292969 408.398438 L 407.835938 408.398438 C 408.175781 408.398438 408.453125 408.121094 408.453125 407.777344 C 408.453125 407.4375 408.175781 407.160156 407.835938 407.160156 Z M 407.835938 425.171875 L 345.292969 425.171875 C 344.953125 425.171875 344.675781 425.449219 344.675781 425.789062 C 344.675781 426.128906 344.953125 426.40625 345.292969 426.40625 L 407.835938 426.40625 C 408.175781 426.40625 408.453125 426.128906 408.453125 425.789062 C 408.453125 425.449219 408.175781 425.171875 407.835938 425.171875 Z M 407.835938 425.171875 " fill-opacity="1" fill-rule="evenodd"/></g><path fill="#f5c0a2" d="M 230.03125 529.042969 C 230.167969 529.109375 230.304688 529.175781 230.441406 529.242188 C 230.597656 529.320312 230.65625 529.5 230.597656 529.660156 C 231.101562 530.601562 230.21875 533.835938 228.9375 534.320312 C 228.878906 534.34375 228.789062 534.351562 228.703125 534.359375 C 228.820312 534.457031 228.875 534.613281 228.804688 534.757812 C 228.78125 534.804688 228.726562 534.8125 228.6875 534.839844 C 229.035156 536.125 228.554688 538.332031 226.832031 539.09375 C 224.574219 540.089844 219.265625 537.898438 217.210938 534.855469 C 215.714844 532.640625 217.171875 531.394531 218.074219 530.875 C 218.105469 530.832031 218.128906 530.785156 218.175781 530.757812 C 217.539062 530.277344 217.101562 529.78125 216.980469 529.289062 C 216.371094 526.8125 217.777344 525.996094 218.648438 525.726562 C 218.617188 525.664062 218.589844 525.59375 218.605469 525.519531 C 218.617188 525.46875 218.65625 525.441406 218.6875 525.402344 C 217.914062 524.871094 217.359375 524.332031 217.175781 523.824219 C 216.863281 522.960938 217.007812 522.226562 217.339844 521.621094 C 217.875 520.652344 218.890625 520.101562 219.953125 520.101562 C 220 519.933594 220.164062 519.824219 220.335938 519.859375 C 220.347656 519.863281 220.625 519.921875 221.09375 520.035156 C 220.773438 519.609375 220.5625 519.101562 220.503906 518.550781 C 220.40625 517.699219 220.609375 516.757812 221.648438 516.136719 C 223.988281 514.746094 230.238281 516.289062 232.285156 518.460938 C 233.09375 519.320312 232.167969 523.144531 231.277344 523.828125 C 231.359375 523.925781 231.402344 524.054688 231.34375 524.179688 C 231.335938 524.195312 231.316406 524.191406 231.308594 524.207031 C 231.84375 525.007812 231.171875 528.171875 230.03125 529.042969 Z M 575.679688 731.6875 L 553.722656 730.761719 C 553.714844 731.164062 553.695312 731.542969 553.695312 731.957031 C 553.695312 739.613281 553.246094 745.46875 552.875 753.628906 C 554.792969 754.390625 557.300781 754.285156 560.058594 751.339844 C 565.601562 745.421875 571.570312 742.609375 577.503906 744.585938 C 575.933594 740.3125 575.585938 736.007812 575.679688 731.6875 Z M 560.476562 366.214844 L 555.742188 337.109375 C 557.355469 335.871094 558.472656 334.171875 558.816406 332.164062 C 559.628906 327.375 557.296875 322.984375 553.605469 322.355469 C 549.917969 321.726562 549.066406 325.210938 548.660156 327.613281 L 548.558594 328.207031 C 546.894531 328.136719 545.496094 328.167969 545.496094 328.167969 C 543.644531 322.691406 546.183594 313.992188 545.210938 307.425781 C 526.34375 303.691406 519.445312 311.609375 511.359375 308.324219 C 510.707031 310.59375 510.386719 313 510.476562 315.488281 L 511.351562 339.367188 C 511.648438 347.148438 516.785156 354.277344 524.65625 356.691406 C 525.082031 356.824219 525.511719 356.917969 525.941406 357.015625 L 526.855469 368.886719 C 527.597656 377.808594 535.144531 384.648438 544.636719 383.839844 C 554.125 383.027344 561.21875 375.136719 560.476562 366.214844 Z M 494.53125 429.441406 L 470.941406 416.769531 L 459.03125 438.761719 L 442.824219 407.484375 C 442.578125 399.566406 433.96875 389.320312 430.035156 384.371094 C 428.0625 381.886719 427.292969 381.359375 426.179688 382.390625 C 424.691406 383.765625 424.714844 386.449219 425.546875 389.453125 C 426.285156 392.136719 427.574219 394.753906 427.859375 396.199219 C 426.835938 395.882812 425.769531 395.59375 424.707031 395.332031 L 424.707031 424.378906 C 425.917969 424.660156 427.046875 424.875 428.09375 425.007812 C 433.300781 440.367188 445.664062 476.671875 445.664062 476.671875 C 448.199219 484.359375 457.332031 488.054688 464.171875 483.71875 C 464.46875 483.53125 464.757812 483.328125 465.046875 483.113281 C 466.308594 482.164062 467.34375 481.023438 468.152344 479.769531 L 495.011719 434.792969 C 494.859375 433.03125 494.699219 431.242188 494.53125 429.441406 Z M 106.902344 451.347656 L 105.882812 428.863281 C 105.738281 425.753906 104.933594 422.835938 103.625 420.222656 C 103.308594 420.988281 102.929688 421.699219 102.511719 422.371094 C 102.460938 422.449219 102.398438 422.515625 102.351562 422.59375 C 101.972656 423.167969 101.566406 423.71875 101.117188 424.226562 C 101.007812 424.351562 100.878906 424.464844 100.761719 424.585938 C 100.351562 425.019531 99.929688 425.441406 99.472656 425.828125 C 99.3125 425.960938 99.140625 426.078125 98.980469 426.203125 C 98.539062 426.550781 98.089844 426.886719 97.609375 427.191406 C 97.414062 427.316406 97.210938 427.429688 97.007812 427.546875 C 96.535156 427.828125 96.0625 428.097656 95.566406 428.339844 C 95.339844 428.453125 95.109375 428.550781 94.875 428.65625 C 94.382812 428.878906 93.886719 429.09375 93.375 429.289062 C 93.125 429.382812 92.867188 429.46875 92.617188 429.558594 C 92.105469 429.734375 91.597656 429.90625 91.074219 430.058594 C 90.804688 430.132812 90.535156 430.207031 90.261719 430.277344 C 89.742188 430.417969 89.226562 430.546875 88.699219 430.664062 C 88.417969 430.726562 88.132812 430.785156 87.847656 430.84375 C 87.328125 430.945312 86.8125 431.042969 86.289062 431.128906 C 85.992188 431.175781 85.699219 431.222656 85.40625 431.265625 C 84.890625 431.339844 84.382812 431.410156 83.875 431.46875 C 83.570312 431.507812 83.273438 431.539062 82.972656 431.570312 C 82.476562 431.621094 81.984375 431.667969 81.496094 431.707031 C 81.191406 431.734375 80.886719 431.757812 80.585938 431.777344 C 80.113281 431.8125 79.65625 431.835938 79.195312 431.859375 C 78.882812 431.875 78.574219 431.890625 78.265625 431.902344 C 77.84375 431.917969 77.433594 431.933594 77.023438 431.941406 C 76.695312 431.953125 76.371094 431.960938 76.054688 431.964844 C 75.695312 431.972656 75.351562 431.976562 75.007812 431.980469 C 74.652344 431.984375 74.304688 431.984375 73.96875 431.988281 C 73.933594 431.988281 73.894531 431.988281 73.855469 431.988281 C 73.988281 435.355469 73.925781 441.753906 72.070312 446.695312 L 70.644531 439.535156 C 70.195312 437.289062 69.304688 434.027344 65.847656 434.714844 C 62.390625 435.40625 60.308594 439.601562 61.203125 444.089844 C 61.902344 447.585938 65.019531 450.058594 69.09375 450.441406 C 69.441406 450.472656 69.765625 450.425781 70.078125 450.34375 C 69.914062 450.554688 69.753906 450.765625 69.574219 450.957031 L 71.550781 455.910156 L 70.824219 464.941406 L 68.210938 481.261719 C 67.558594 488.886719 73.210938 495.59375 80.839844 496.246094 C 88.464844 496.894531 94.570312 491.023438 95.222656 483.398438 L 96.183594 468.445312 C 103.117188 465.464844 107.214844 458.527344 106.902344 451.347656 Z M 486.074219 745.355469 C 494.089844 755.929688 504.878906 753.761719 510.949219 750.660156 C 510.953125 750.664062 510.953125 750.671875 510.953125 750.675781 C 510.921875 744.554688 511.777344 736.339844 512.476562 730.699219 L 489.015625 730.699219 C 488.492188 737.269531 487.519531 741.6875 486.054688 745.378906 C 486.058594 745.371094 486.066406 745.363281 486.074219 745.355469 Z M 608.144531 429.066406 L 591.761719 429.730469 C 590.027344 443.921875 588.667969 457.050781 588.667969 463.347656 C 588.667969 476.902344 590.722656 500.785156 590.722656 510.664062 C 590.722656 513.28125 588.824219 515.5 586.242188 515.941406 C 584.9375 516.164062 583.609375 516.363281 582.28125 516.5625 C 583.699219 524.089844 585.550781 528.890625 587.96875 527.773438 C 594.570312 524.730469 602.320312 502.15625 605.734375 491.234375 C 606.875 487.585938 607.414062 483.792969 607.355469 479.96875 C 607.113281 463.707031 607.972656 434.671875 608.144531 429.066406 Z M 132.230469 556.859375 L 133.988281 542.976562 L 130.863281 543.398438 C 126.753906 543.988281 123.703125 547.503906 123.703125 551.652344 L 123.703125 551.65625 C 123.703125 553.601562 124.566406 555.414062 125.90625 556.867188 Z M 132.230469 556.859375 " fill-opacity="1" fill-rule="nonzero"/></svg>